<svg preserveAspectRatio="none" width="100%" height="100%" overflow="visible" style="display: block;" viewBox="0 0 31.6222 31.6222" fill="none" xmlns="http://www.w3.org/2000/svg">
<g id="up-right-from-square-solid 1" clip-path="url(#clip0_0_163)">
<path id="Vector" d="M21.7402 0C20.9435 0 20.2209 0.481744 19.9121 1.22289C19.6033 1.96403 19.7762 2.81017 20.3382 3.37838L22.8952 5.92916L12.4389 16.3916C11.6668 17.1637 11.6668 18.4174 12.4389 19.1895C13.2109 19.9615 14.4647 19.9615 15.2367 19.1895L25.693 8.72698L28.25 11.2839C28.8182 11.8521 29.6643 12.0189 30.4055 11.7101C31.1466 11.4013 31.6283 10.6848 31.6283 9.88193V1.97639C31.6283 0.883197 30.7451 0 29.652 0H21.7402ZM4.94096 1.97639C2.21108 1.97639 0 4.18747 0 6.91735V26.6812C0 29.4111 2.21108 31.6222 4.94096 31.6222H24.7048C27.4347 31.6222 29.6458 29.4111 29.6458 26.6812V19.7639C29.6458 18.6707 28.7626 17.7875 27.6694 17.7875C26.5762 17.7875 25.693 18.6707 25.693 19.7639V26.6812C25.693 27.2247 25.2483 27.6694 24.7048 27.6694H4.94096C4.39746 27.6694 3.95277 27.2247 3.95277 26.6812V6.91735C3.95277 6.37384 4.39746 5.92916 4.94096 5.92916H11.8583C12.9515 5.92916 13.8347 5.04596 13.8347 3.95277C13.8347 2.85958 12.9515 1.97639 11.8583 1.97639H4.94096Z" fill="var(--fill-0, #022558)"/>
</g>
<defs>
<clipPath id="clip0_0_163">
<rect width="31.6222" height="31.6222" fill="white"/>
</clipPath>
</defs>
</svg>
