<svg preserveAspectRatio="none" width="100%" height="100%" overflow="visible" style="display: block;" viewBox="0 0 31.6165 31.6165" fill="none" xmlns="http://www.w3.org/2000/svg">
<g id="up-right-from-square-solid 1" clip-path="url(#clip0_0_172)">
<path id="Vector" d="M21.7363 0C20.9398 0 20.2173 0.481658 19.9085 1.22267C19.5998 1.96368 19.7727 2.80967 20.3346 3.37778L22.8911 5.92809L12.4366 16.3887C11.6648 17.1606 11.6648 18.4141 12.4366 19.186C13.2085 19.9579 14.4621 19.9579 15.234 19.186L25.6884 8.72541L28.2449 11.2819C28.813 11.85 29.659 12.0167 30.4 11.708C31.141 11.3992 31.6227 10.6829 31.6227 9.88016V1.97603C31.6227 0.883039 30.7396 0 29.6466 0H21.7363ZM4.94008 1.97603C2.21069 1.97603 0 4.18672 0 6.91611V26.6764C0 29.4058 2.21069 31.6165 4.94008 31.6165H24.7004C27.4298 31.6165 29.6405 29.4058 29.6405 26.6764V19.7603C29.6405 18.6673 28.7574 17.7843 27.6644 17.7843C26.5714 17.7843 25.6884 18.6673 25.6884 19.7603V26.6764C25.6884 27.2198 25.2438 27.6644 24.7004 27.6644H4.94008C4.39667 27.6644 3.95206 27.2198 3.95206 26.6764V6.91611C3.95206 6.3727 4.39667 5.92809 4.94008 5.92809H11.8562C12.9492 5.92809 13.8322 5.04505 13.8322 3.95206C13.8322 2.85907 12.9492 1.97603 11.8562 1.97603H4.94008Z" fill="var(--fill-0, #022558)"/>
</g>
<defs>
<clipPath id="clip0_0_172">
<rect width="31.6165" height="31.6165" fill="white"/>
</clipPath>
</defs>
</svg>
